<svg xmlns="http://www.w3.org/2000/svg" width="1080" height="250"><path d="M196.258 18.652c3.796 1.632 5.454 2.867 7.617 6.473.416 1.28.788 2.573 1.125 3.875l.684 2.254C207.403 37.907 207.46 44.512 205 51c-2.282 2.213-3.956 2.873-7 4l3.313 1.25c3.325 1.255 4.838 2.704 6.687 5.75a108 108 0 0 1 1.875 6.313C211.48 73.835 213.324 77.608 217 82c1.067-3.258 1.133-3.734-.5-7s-1.567-3.742-.5-7c1.579-.277 3.164-.52 4.75-.75l2.672-.422C226 67 226 67 228.246 68.59c3.855 5.297 3.707 12.667 3.816 19.035-2.177 6.918-6.57 13.611-12.062 18.375-3.25.688-3.25.688-7 0-2.948-2.067-5.48-4.437-8-7l-1-1-.918 3.29q-.633 2.168-1.27 4.335l-.595 2.16c-1.534 5.145-3.571 8.276-7.217 12.215l-1.687 2.375L191 124h-2l-.937 2.813L186 133l2.16 2.344a2457 2457 0 0 1 7.46 8.143q1.709 1.872 3.423 3.74c5.944 6.61 11.347 13.073 13.894 21.71 2.724 9.055 8.562 15.942 15.333 22.372 2.548 2.49 4.836 5.189 7.152 7.894 1.547 1.817 1.547 1.817 3.285 3.414C240 204 240 204 239.937 205.875c-1.222 2.772-2.968 4.839-4.937 7.125l2.188.75C240 215 240 215 242.063 217.188c4.74 2.924 9.596 1.596 14.937.812v4c-5.34 5.097-9.205 7.169-16.687 7.563-3.976-.132-3.976-.132-7.313 1.437-2.016.234-4.038.413-6.062.563l-3.348.253L221 232l-.043-2.71c-.556-14.106-5.96-21.692-14.625-32.208-3.488-4.24-6.824-8.586-10.144-12.957l-1.671-2.19a1305 1305 0 0 1-6.61-8.728c-4.83-6.376-9.99-12.19-16.544-16.827l-1.909-1.354L168 154l-2.212 2.244a3648 3648 0 0 1-8.292 8.37 1594 1594 0 0 0-3.558 3.599A607 607 0 0 1 142 180l-1.513 1.471c-8.395 8.041-8.395 8.041-14.487 8.177a87 87 0 0 1-5-.648l-2.648-.284c-2.794-.31-5.57-.691-8.352-1.091-6.503-.9-12.995-1.755-19.53-2.4C72.443 183.444 72.443 183.444 69 180c-6.325-.06-11.109.776-16 5a105 105 0 0 0-4.508 5.512C46.69 192.31 45.515 192.725 43 193c-2.312-1.25-2.312-1.25-4-4-.53-6.35.692-12.002 4.34-17.234 2.504-2.663 5.468-4.372 8.578-6.254 3.196-2.32 4.333-5.014 6.082-8.512 3.27-2.18 4.205-2.632 8-2 2.813 2.375 2.813 2.375 5 5v2c8.677 1.773 16.928 2.186 25.755 2.014 6.4-.108 12.684.109 18.925 1.646 2.989.548 4.47.504 7.32-.66 3.98-4.06 6.824-9.08 9.72-13.934 1.267-2.044 2.628-3.97 4.053-5.906 3.12-4.427 3.227-7.598 3.227-12.91 0-3.25 0-3.25 1-5.25l-2.23-.285c-3.178-.82-4.667-1.964-7.083-4.153l-2.113-1.87C128 119 128 119 128 117l3.14-1.242 4.11-1.633 2.066-.816c6.246-2.486 9.573-3.965 13.684-9.309l2-1c1.69-8.606.648-17.319 0-26-15.463 3.115-29.534 7.227-40 20-1.258 3.598-1.258 3.598-2 7-1.25 2-1.25 2-3 3-3.583-.076-5.483-.619-8.375-2.75C98 102 98 102 97.5 99.563c.5-2.563.5-2.563 2.563-5L102 92l-.812-2.812C101 86 101 86 102.64 84.05c2.382-2.127 4.825-4.109 7.359-6.051l1.96-1.527q1.902-1.447 3.845-2.836c2.305-1.677 2.305-1.677 4.765-3.867C131.27 60.835 143.332 58.868 157 58l.625-2.875C159 52 159 52 161.688 50.625 165 50 165 50 168.5 50.125c4.273-.153 6.18-1.534 9.5-4.125l-.473-1.836c-1.784-7.68-2.425-14.5 1.286-21.664 4.722-5.397 10.763-5.778 17.445-3.848M801 40h14c6.459 17.13 12.793 34.301 19.063 51.5L843 116l1-76h17v135h-14l-1.924-5.346-6.37-17.685q-1.928-5.35-3.854-10.7a22097 22097 0 0 0-5.143-14.28c-3.488-9.696-7.09-19.34-10.709-28.989l-1 77h-17zM641 40h14c3.82 8.954 7.25 18.006 10.52 27.172q.676 1.888 1.354 3.776 2.473 6.9 4.938 13.802L683 116l1-76h17v135h-13c-3.353-7.263-6.143-14.653-8.844-22.18l-1.366-3.783q-1.787-4.95-3.566-9.9-1.8-4.998-3.603-9.992-3.19-8.84-6.37-17.68C662.51 106.64 660.753 101.82 659 97l-1 78h-17zM395 40c50 0 50 0 56 5 1.224 2.448 1.153 4.092 1.193 6.83l.049 3.044c.044 4.597.085 9.194.108 13.792q.025 3.639.082 7.277c.055 3.495.077 6.988.091 10.483l.07 3.283c-.022 7.541-.022 7.541-3 11.452C447 103 447 103 445 104l2.875 1.688c3.372 2.495 3.936 3.435 5.125 7.312.254 2.497.254 2.497.259 5.154l.019 3.034-.012 3.246.005 3.365q.002 3.519-.01 7.038c-.011 3.584 0 7.167.012 10.75q0 3.424-.007 6.847l.012 3.239c-.074 11.779-.074 11.779-4.278 16.64-13.774 11.622-35.978 2.687-54 2.687zm17 15v42c11.787.657 11.787.657 21.187-4.317 4.029-5.961 2.801-13.73 2.438-20.62a881 881 0 0 1-.137-4.963c-.101-4.04-.296-8.06-.488-12.1zm0 57v48h23c.23-5.877.429-11.737.55-17.615q.075-2.995.204-5.988c.898-11.02.898-11.02-2.567-21.072C426.46 110.695 420.222 112 412 112M332.69 39.596l2.8-.038 3.006.008 3.108-.015q3.252-.01 6.504.003c3.314.008 6.627-.02 9.94-.052q3.162-.003 6.323.002l3-.034c4.248.043 6.92.13 10.668 2.249 3.257 3.789 4.21 7.347 4.222 12.284l.021 2.977-.007 3.233.015 3.43c.014 3.743.013 7.486.01 11.228l.014 7.805q.01 8.18.002 16.36c-.006 6.295.006 12.59.027 18.886.02 6.066.023 12.132.02 18.198q0 3.866.015 7.73c.013 3.603.006 7.205-.006 10.808l.023 3.226c-.038 5.42-.19 9.515-3.395 14.116-2.827 2.76-4.782 3.378-8.69 3.404-1.386.02-1.386.02-2.8.038l-3.006-.008-3.108.015q-3.252.01-6.504-.003c-3.314-.008-6.627.02-9.94.052q-3.162.003-6.323-.002l-3 .034c-4.248-.043-6.92-.13-10.668-2.249-3.257-3.789-4.21-7.347-4.222-12.284l-.021-2.977.007-3.233-.015-3.43c-.014-3.743-.013-7.486-.01-11.228l-.014-7.805q-.01-8.18-.002-16.36c.006-6.295-.006-12.59-.027-18.886-.02-6.066-.023-12.132-.02-18.198q0-3.866-.015-7.73c-.013-3.603-.006-7.205.006-10.808l-.023-3.226c.038-5.42.19-9.515 3.395-14.116 2.827-2.76 4.782-3.378 8.69-3.404M338 55v105h27V55zM889.84 39.602l2.906-.01a845 845 0 0 1 6.08.017c3.097.016 6.192 0 9.29-.02q2.955.004 5.911.013l2.8-.019c4.852.053 8.282.185 12.173 3.417 3.369 5.053 3.14 10.004 3.098 15.926l-.005 2.265c-.005 2.374-.018 4.748-.03 7.121q-.008 2.424-.014 4.846c-.01 3.948-.03 7.895-.049 11.842h-18V55h-24v105h24v-40h-13v-15h31c.042 7.582.082 15.164.104 22.746q.014 5.298.047 10.594c.026 4.056.035 8.112.044 12.168l.032 3.817v3.578l.014 3.136c-.363 4.458-1.299 7.872-4.241 11.274-2.876 2.426-4.506 2.816-8.187 2.864l-2.62.039-2.838.022-2.914.025q-3.059.02-6.116.032c-3.115.017-6.228.061-9.343.105q-2.97.015-5.939.026l-2.82.053c-4.124-.014-6.59-.117-10.226-2.193-3.3-3.777-4.246-7.336-4.258-12.289l-.021-2.977.007-3.233-.015-3.43c-.014-3.743-.013-7.486-.01-11.228l-.014-7.805q-.01-8.18-.002-16.36c.006-6.295-.006-12.59-.027-18.886-.02-6.066-.023-12.132-.02-18.198q0-3.866-.015-7.73c-.013-3.603-.006-7.205.006-10.808l-.023-3.226c.045-6.397.68-10.922 4.968-15.966 3.959-1.876 7.943-1.577 12.267-1.548M496 40h17v57h26V40h17v135h-17v-62h-26v62h-17z"/><path fill="#469bd1" d="M975 40h17v120h26V40h17q.106 24.488.155 48.974c.016 7.58.037 15.16.071 22.74q.046 9.912.056 19.823.004 5.247.035 10.494c.024 3.907.025 7.814.024 11.721l.032 3.505c-.039 10.071-.039 10.071-3.373 14.743-2.801 2.727-4.728 3.378-8.597 3.404-1.357.02-1.357.02-2.741.038l-2.94-.008-3.04.015q-3.182.01-6.362-.003a783 783 0 0 0-9.724.052q-3.093.003-6.186-.002l-2.933.034c-4.2-.043-6.8-.145-10.503-2.249-3.395-3.923-4.225-7.552-4.215-12.666l-.008-3.233.022-3.516v-3.726q.001-5.046.024-10.09c.013-3.518.014-7.036.016-10.554.006-6.658.023-13.316.043-19.974.022-7.582.033-15.163.043-22.745Q974.932 63.388 975 40"/><path d="M569 40h17v120h25V40h17q.176 24.877.26 49.757c.025 7.7.06 15.402.117 23.103q.076 10.07.093 20.14c.007 3.553.022 7.107.059 10.66.04 3.97.04 7.94.039 11.909l.054 3.561c-.056 8.888-.056 8.888-3.032 12.584-3.235 2.856-4.668 3.41-8.853 3.479l-2.67.049c-4.039.044-8.076.085-12.114.108q-3.192.025-6.384.082c-3.07.055-6.14.077-9.21.091l-2.87.07c-4.459-.015-7.525-.132-11.074-3-3.275-3.517-3.54-5.014-3.535-9.693l-.004-3.272.01-3.605v-3.784q.001-5.145.013-10.289c.006-3.582.006-7.164.008-10.746q.005-10.179.021-20.357.015-11.586.022-23.173.016-23.837.05-47.674M291 40h17q.176 24.877.26 49.757c.025 7.7.06 15.402.117 23.103q.076 10.07.093 20.14c.007 3.553.022 7.107.059 10.66.04 3.97.04 7.94.039 11.909l.054 3.561c-.056 8.888-.056 8.888-3.032 12.584-5.815 5.132-14.09 3.588-21.501 3.636q-2.829.025-5.656.082c-2.723.055-5.444.077-8.167.091l-2.539.07c-4.178-.016-6.907-.295-10.244-2.938-4.158-4.446-3.616-8.712-3.58-14.48l.004-2.61c.005-2.75.018-5.501.03-8.252q.008-2.799.014-5.596c.01-4.573.03-9.145.049-13.717h17v32h20zM706 40h57v15h-20v120h-17V55h-20zM770 40h17v135h-17z"/></svg>